# xmcd
#
# Track frame offsets: 
#        150
#        11445
#        24423
#        39676
#        53612
#        68914
#        82144
#        97802
#        112051
#        131742
#        147512
#
# Disc length: 2105 seconds
#
# Revision: 0
# Processed by: cddbd v1.5.2PL0 Copyright (c) Steve Scherf et al.
# Submitted via: ExactAudioCopyFreeDBPlugin 1.0
#
DISCID=9408370b
DTITLE=Sammy Kershaw - Icon
DYEAR=2011
DGENRE=Country
TTITLE0=Anywhere But Here
TTITLE1=She Don't Know She's Beautiful
TTITLE2=Third Rate Romance
TTITLE3=Don't Go Near the Water
TTITLE4=I Can't Reach Her Anymore
TTITLE5=Cadillac Style
TTITLE6=Yard Sale
TTITLE7=National Working Woman's Holiday
TTITLE8=Love of My Life
TTITLE9=Queen of My Double Wide Trailer
TTITLE10=If You're Gonna Walk, I'm Gonna Crawl
EXTD=
EXTT0=
EXTT1=
EXTT2=
EXTT3=
EXTT4=
EXTT5=
EXTT6=
EXTT7=
EXTT8=
EXTT9=
EXTT10=
PLAYORDER=
